<?xml version="1.0" encoding="UTF-8"?>
<svg width="60px" height="60px" viewBox="0 0 512 512" version="1.1" xmlns="http://www.w3.org/2000/svg" xmlns:xlink="http://www.w3.org/1999/xlink">
    <title>play/ic_launcher_APP</title>
    <g id="play/ic_launcher_APP" stroke="none" stroke-width="1" fill="none" fill-rule="evenodd">
        <g id="vector_falling_canary" transform="translate(66.000000, 114.000000)">
            <path d="M115.488077,117.363542 L139.506027,122.113624 M122.886094,134.038774 L128.314954,106.589744" id="Shape" stroke="#151C1F" stroke-width="4.257" stroke-linecap="round"></path>
            <path d="M71.1064,132.355849 L295.505,39.9178262 C295.551731,39.9624161 295.60041,40.0070059 295.647142,40.0515957 C294.510004,108.857205 250.556896,191.729249 148.321183,217.863951 C135.761261,196.53872 99.2077271,149.71317 70.3855635,134.874688 C70.6379147,134.054157 70.8781935,133.214155 71.1064,132.355849 Z" id="Path" fill="#0B70E4"></path>
            <path d="M165.430826,21.5094319 L148.574897,68.6508102 L146.432249,65.8856567 C136.726075,53.35942 125.209049,42.3482639 112.25989,33.2141643 L142.04901,0 L140.519521,36.2536718 L165.430826,21.5094319 Z" id="Path" fill="#F86932" fill-rule="nonzero"></path>
            <circle id="Oval" fill="#2088FF" fill-rule="nonzero" transform="translate(94.991360, 97.733892) rotate(-33.812600) translate(-94.991360, -97.733892) " cx="94.9913598" cy="97.7338925" r="68.4701143"></circle>
            <path d="M93.0266813,74.6079333 L116.28972,66.9750894 M107.648835,85.516085 L98.9257792,58.9298383" id="Shape" stroke="#FFFFFF" stroke-width="4.257" stroke-linecap="round"></path>
            <path d="M26.5204666,98.5125594 C27.1823043,180.322821 81.9499061,254.929975 164.747569,277.115848 C228.022482,294.069719 292.428496,276.325304 337.795238,235.542162 C317.97321,236.840914 297.607926,234.969699 277.357524,229.542981 C227.634998,216.220553 188.022875,183.995153 164.164786,142.656683 L26.5204666,98.5125594 Z" id="Path" fill="#2088FF"></path>
            <path d="M348.4267,70.5726512 L119.644277,148.756338 C119.349478,149.622627 119.04358,150.468666 118.725999,151.293091 C146.454252,168.086905 179.685746,217.326536 190.742465,239.467625 C212.636071,235.458435 232.117347,228.750489 249.285404,220.01945 C242.945471,217.371321 237.020281,213.671728 231.774648,209.010241 L230.421376,207.804953 C228.813026,206.375742 228.668937,203.914539 230.098148,202.308137 C231.527359,200.699788 233.988562,200.555698 235.594964,201.98491 L236.950183,203.188251 C243.223914,208.766847 250.611416,212.768249 258.512967,215.007476 C260.818398,213.671728 263.080991,212.297037 265.294905,210.887298 C261.593365,209.278949 258.026179,207.304534 254.649814,204.973791 L253.156346,203.943747 C251.386383,202.722881 250.942432,200.298674 252.163298,198.526764 C253.386111,196.756801 255.810317,196.31285 257.58028,197.533715 L259.0718,198.56376 C263.466527,201.595479 268.229266,203.939852 273.202297,205.567673 C275.367533,204.029421 277.486036,202.454174 279.555861,200.845824 C278.36615,200.135113 277.193963,199.383512 276.045142,198.59102 L274.553622,197.560976 C272.783659,196.34011 272.339708,193.915903 273.560574,192.143993 C274.781439,190.37403 277.207593,189.930079 278.977556,191.150944 L280.469076,192.180989 C282.270194,193.423273 284.13362,194.550675 286.04962,195.561248 C325.86892,161.620406 346.345192,114.805955 350,72.2577184 C349.48011,71.6938225 348.956325,71.1320686 348.4267,70.5726512 Z" id="Path" fill="#2088FF"></path>
        </g>
    </g>
</svg>